<?xml version="1.0" encoding="utf-8"?>
<!-- Generator: Adobe Illustrator 23.0.6, SVG Export Plug-In . SVG Version: 6.00 Build 0)  -->
<svg version="1.1" id="Calque_1" xmlns="http://www.w3.org/2000/svg" xmlns:xlink="http://www.w3.org/1999/xlink" x="0px" y="0px"
	 viewBox="0 0 748.4 752.9" style="enable-background:new 0 0 748.4 752.9;" xml:space="preserve">
<style type="text/css">
	.st0{fill:#1C1F2A;}
	.st1{fill:#F3BA40;stroke:#FFFFFF;stroke-miterlimit:10;}
</style>
<symbol  id="Nouveau_symbole" viewBox="-324.4 -286.2 648.9 572.4">
	<path d="M290.2-96.9"/>
	<path d="M-227.3,271.6c6.6,0.2,14-0.4,21.2-4.2c-3.2,13.5-31.5,8.2-31.5,8.2S-233.9,271.4-227.3,271.6z M-192,279
		c3.5-0.9,7.4-2.6,11.1-5c2.9-1.9,5.6-4.1,8-6.9c-0.1,0.5-0.2,1-0.3,1.4c-3.5,15.5-28.2,17.7-28.2,17.7S-198.3,280.6-192,279z
		 M-145.1,259.4c1.1-2,2.3-3.7,3.2-5.4c1.4-2.5,2.3-4.8,1.7-7.9c0,0,5.6,11,0.4,16.2c-4.8,4.9-7.5,7.6-7.5,7.6s-1.5-1.7-0.5-4.9
		C-146.9,262.9-146,261-145.1,259.4z M-113.2,227.7c4.6-3.8,8.8-3.6,8.8-3.6c-7.8,6-4.8,16-7.2,20.8s-5.5,5.3-5.5,5.3
		s-1.8-3.9-1.7-11C-118.7,235.6-116.7,230.5-113.2,227.7z M-252.7,260.1c2.3,0.3,4.1,0.8,4.1,0.8c-0.1,0-0.1,0.1-0.1,0.1
		c0,0,0,0,0,0c-2.6,2-4.4,3.4-6.1,4c-1.9,0.6-3.9,0.3-7-1.2C-263.3,259.4-257.1,259.5-252.7,260.1z M-306.2-8.6
		c-7.6-3.5-10.8-14.8-10.8-14.8c2.6,0.2,4.3,0.6,5.5,1.1c2.5,1.1,2.7,3,4.6,6.1c2,3.2,0.4,0.5,7.2,8.4c0,0,0,0,0.1,0.1c0,0,0,0,0,0
		C-302.1-7.3-304.3-7.7-306.2-8.6z M-96.9,239.5l0.4-0.7c0.7-1.1,1.4-2.2,2.1-3.2c0.5-0.7,0.9-1.4,1.5-2.1c0.5-0.6,0.9-1.2,1.4-1.7
		c1.3-1.5,2.7-2.7,4.2-3.7l0.5-0.3c4.1-2.4,7.8-2.7,12.7-2.1c-1.9,1.3-5.2,3.7-7.4,6.7l0,0.1c-7.3,12.2-15,10.8-17.3,10
		c0.3-0.5,0.8-1.2,1.2-1.8C-97.4,240.2-97.1,239.8-96.9,239.5z M-278.5,79.6c-3.9,5-11.2,8.5-17.5,10.8c-1.2,0.4-2.7,0.6-4.2,0.6
		c-2.9,0-6-1-8.1-3.6c-1.8-2.2-5.1-3.9-5.1-3.9s2.9-1.4,6.9-1.2c0.8,0,4.2,0.4,6.6,0.6c1,0.2,2,0.3,3.3,0.4
		c4.9,0.6,9.8-0.6,13.3-1.8C-280.4,80.6-278.5,79.6-278.5,79.6z M-305.1,45.4c-1.1-0.5-2.2-1.2-3.3-2c-2.1-1.7-3.8-3.9-4.1-6.5
		c-0.2-2.2-1.8-5-1.8-5s1.8,0.9,4.6,3.2c0.6,0.5,4.1,3.4,10,7.8c5.9,4.4,12.3,6.5,12.3,6.5C-292.6,49.8-299.5,47.7-305.1,45.4z
		 M-285.3,171.8c-0.8-7.6-6.8-10.6-12.4-11.4c-1.1-7.4,9-4.9,14.3-7.4c-6.2-4.5-8.6-7-13.7-6.1c8.9-8.9,13.1-3.6,17.5-10.8
		c-4.1-3.6-12-1.3-12-1.3s-1.9-2.9,10-8c11.8-5.1,10-17.1,22.6-21.3c8.6-2.8,12.4-1.2,12.4-1.2s-3-7.2-13.7-7.2
		c-10.7,0-13.7,3.4-20.9,3.4c11.9-14.3,8-21.3,24.4-22.7c-8.5-9.2-20.3-2.5-20.3-2.5s-3.6-3.8,0.2-8.1s4.5-7,4.5-7s-8-2.7-13.6-0.6
		c5.1-6.8,12.2-6.5,12.2-6.5s-4.6-2.4-12.8-10.8c-8.2-8.3-8.7-12.2-8.7-17.4c9.2,7.2,17.5,12,17.5,12s-14.5-16.5-12.1-34.2
		c25.5,48.8,48.8,35.5,51.9,55.6c-12.8-4.8-20.4-0.8-24.3,3.9c27.6,2.3,29.8,31.4,44.2,36.8c-17.8-4.3-20.3,1.9-20.3,1.9
		c-0.2,1.9,16.9,17.4,33.8,17.7c-17.6,8-20.8,6.2-20.8,6.2c15.6,16.6,51.9,19.4,51.9,19.4s-18.4,9.9-31.8,9.4
		c13.4,13.3,33,13.6,46,13.2s18.6,4.7,18.6,4.7s-14.8,4.1-14.8,16.3c24.9-12.8,38.5-7.3,60.1,3.4c16.9,8.4,25.6,10.3,28.6,10.8
		c-3-0.3-10.6-0.6-14.2,3c-5.7,5.7-7.3,6.5-7.3,6.5s2.3-5.9,0.9-8.2c-1.4-2.3-1.4-4-1.4-4s-6.6,4.8-7.3,9.3s-0.8,4.5-0.8,4.5
		s-4.9,1.5-5.2-5.2c-0.3-6.7-1.2-9-3.8-10.5c0,0-1.8,7-7.3,7.9c-5.5,0.9-6.1,9.4-6.1,9.4s-6.5-3.1-7.4-12.6
		c-6,23.2-14.9,27.4-19.3,35c-4.4-2.3,3.7-8.9-1.3-11.9c-19.8,22.4-20.2,34.2-20.2,34.2s-4.8-2.8-5-12.3c-0.3-9.5-2.2-11.5-2.2-11.5
		s-1.3,10.6-12.1,18.4c-10.8,7.7-18,9.2-18,9.2s-0.2-5.4,2.7-8.4c2.9-2.9,0.5-7.4,0.5-7.4s-7.2,7.8-26,6.5s-31.3-11-33.6-13.7
		c3.4-6.1,20.5-0.4,18.3-11.5c0,0-9.6,4.6-21.9-2.9c-13.1-8-16.4-9.3-22.5-9.7c0,0,1.3-5.1,6.4-7c5.1-1.9,6.1-1.9,7.3-5
		c-9-3.1-28.9-10.3-27.3-33.2C-292,166.9-290.9,173.1-285.3,171.8z M-66.5,202.4c0.8,0.1,1.2,0.1,1.2,0.1S-65.7,202.5-66.5,202.4z
		 M133.1,229.5c5,8.3,4.2,19.2,4.2,19.2s-0.9-2.9-3.6-5.2c-1.2-1.1-4.8-2.2-6.5-3.7c-6-5-2.1-19.9-2.1-19.9S127.9,221,133.1,229.5z
		 M107.9,225.5c4.2,5.9,5.4,13,5.4,13s-0.9-1.8-3.3-3.1c-1.1-0.6-5.3-3.8-6.5-5.1c-7.9-8.5-4.7-13.9-4.7-13.9
		S102.3,217.6,107.9,225.5z M-298.3,69.9c-1.8-0.4-3.2-0.9-3.5-1.7l-1-2.8l2.8-0.9c0.3-0.1,0.8-0.1,1.3-0.1c2.1,0.1,5.2,1.2,6.9,3.3
		c2.2,2.5,4.4,2,4.4,2C-288.3,71.3-293.9,70.8-298.3,69.9z M214.3,272.2c6.4,0.6,9.5,5.7,9.5,5.7s-21.3,1.5-29.1-10.1
		c-0.8-1.3-1.5-2.7-2-4.3c2.5,2.1,6.1,3.8,8.9,5.1C205.9,270.7,210.4,271.8,214.3,272.2z M283.9,246.1c-1,0.9-5.1,6.2-10.8,5.2
		c-1.1-0.2-2.3-0.8-3.8-1.4c-0.2-0.1-0.5-0.2-0.7-0.3c0,0,0.8-0.5,2-1.1C274.4,246.7,283.9,240.9,283.9,246.1z M315.3,207.4
		c-1,6.1-6.8,18.8-11.9,18.5c-2-0.1-4.3-1.5-4.3-1.5s1.5-1.2,3.2-2.8C306.5,217.5,308.3,216.5,315.3,207.4z M321.8,166.2
		c1.5,4.1,4.1,13.3,1.5,14.9c-1.7,1.1-4.9-0.4-4.9-0.4s0.7-1,1.1-2.7C320.9,173.5,321.2,171,321.8,166.2z M251.7,262.7
		c6.6-0.3,10.9,4.4,10.9,4.4s-28.1,5.8-31.6-7.6c0,0,0,0,0-0.1c0,0,0,0,0.1,0C238.3,263,245.2,263,251.7,262.7z M-11.2,26.1
		C-11,20.4-23,22.1-23,22.1s2-0.2,5.6-8.4s2.6-21.9,2.6-21.9S-7.7,9.9-11.2,26.1z M-21.3,244.9c1.2-0.5,2.5-1,3.8-1.5
		c7.1-2.8,15.2-6,19.5-9.7c2.2-1.9,3.4-3.7,4.1-5c0.7,2.7,1.7,8-0.4,12.6c-1.3,2.9-3.7,5.1-7.1,6.6c-0.5,0.2-1,0.4-1.5,0.6
		c-3.3,1.1-6,2-8.1,2.6c-7.8,2.4-10.4,3.3-16.6,8.9l0,0c-0.5-1.2-1.2-3-1.4-5c-0.1-0.7-0.1-1.5,0-2.2
		C-28.5,249.4-25.9,246.7-21.3,244.9z M-53.8,236.4c10.9-2.2,23.9-10.7,24.3-10.9c-3.2,9.3-23.7,19.3-25.9,22.9
		C-57.2,247.7-65.5,238.8-53.8,236.4z M50.5,224.1c0,0,0.8,6.9,9.5,12.5c12,7.9,19.4,3.5,19.4,3.5s-1.4-0.5-5.1-3
		c-1.3-0.9-2.4-2.4-3.3-4.3c-1.1-2.3-1.3-4-0.7-5.1c0.5-0.9,1.8-1.5,3.6-1.6c4.2-0.3,9.9,3.1,15.8,9.4l0.3,0.3
		c0.2,0.2,0.4,0.4,0.6,0.6l0.3,0.3c1.7,1.9,3.3,4.1,4.6,6.6c-2-0.9-5.2-1.9-9.2-1.4c-2.2,0.3-4.6,1-7.2,2.3c-3,1.6-5.9,2.3-8.5,2.4
		c-4.9,0.2-11.2-1.6-14.1-3.6c-7.8-5.1-8.1-12-7.7-14.9C49,226.2,49.9,224.8,50.5,224.1z M-14.4-73.1c-2.8,0.3-4.1,3.4-7.2,2.2
		l-0.9-2.9l-1.3-4.2l-0.5-1.6c0,0,4.7-8.9,16.7-8.9C-1.4-85,2.8-81.3,5.7-78c1,1.2,1.9,2.3,2.6,3.3c3.1,4.6,3.5,7.8,3.5,7.8
		S9.8-75.7-14.4-73.1z M21.1,229.6c0,0,9.4,4.1,9.4,9.9c0,2.8-1.3,5.9-2.6,8.6c-1.4,3-3,5.6-3.6,6.6c-1.2-0.4-4.5-1.6-5.5-4.3
		c-1.8-4.5,1.5-10.1,2.7-13.4C22.6,233.7,21.1,229.6,21.1,229.6z M152.8,245c2.2,3.6,8.5,9,12.6,15c1.8,2.8,0.7,4.8,0.7,4.8
		s-3.3-2-9.1-5.5c-3.1-1.9-4.9-6.6-5.1-10.1C151.8,245.8,152.8,245,152.8,245z M295.5-72c-8.6,6.9-16.2,9.6-16.2,9.6
		s5.8-2.7,9.2-9.3c6.9-13.2,18.4-15.7,18.4-15.7S305.6-80.1,295.5-72z M287.5-109.3c1.1,8.6-4,19.9-4.1,19.5
		c-0.4-21.3-3.7-30.8-3.7-30.8s-2.5,7.8-6.5,15.3c-7.3,13.5-18,23.9-18,23.9s4.2-7.6,6.7-15.1c3.7-11.5,7.5-26.1,13.5-31.1
		c6.6-5.5,12.9-6.9,12.9-6.9S284.8-130.4,287.5-109.3z M260.2-139.6c-1.4-14.3-6.5-23-6.5-23s-0.2,11.9-5,29.6c0,0,0,0,0,0
		c-0.1,0.2-0.1,0.3-0.1,0.5c-0.8,2.7-1.7,5.6-2.7,8.7c0,0,0,0.1,0,0.1c0,0,1.3-11.7,0.1-18.8c-1.3-7.9-1.6-20,2.6-26s11.8-3,11.8-3
		s-3.2,4.1-1.5,8.6c1.5,3.3,3.8,8.8,4,15.2c0.7,16.1-2,25.9-2,25.9S261-130.9,260.2-139.6z M-309.2,150.8c2.7-1.1,3,0.8,3,0.8
		s-3.9,5.9-4.6,17.2C-312.7,162.6-311.3,151.7-309.2,150.8z M-308.7,192.9c0,0,2.2,5.6,3.7,8.5c2,3.8,4.5,7.7,4.5,7.7
		s-0.8,0.8-3.5-0.1c-2.3-0.8-3.4-1.4-4-4.2C-308.7,201.6-308.8,196.1-308.7,192.9z M310.9-39.5c-0.9,2.8-2,4.1-3,4.7
		c2.1-8.9,0.6-12.8,0.6-13.2l-3.6,4c-3.6,4-26.9,22.6-26.9,22.6s16.1-14.3,21.3-24.4c4.3-8.3,9.2-12.6,13.1-12.6
		c0,0-0.3,13.3-1.2,17.6C311.1-40.3,311-39.8,310.9-39.5z M308.7,62.5c-3.7-3.2-7.6-4.2-7.6-4.2s2.5-1.3,4.7-3.2
		c1.6-1.4,5.3,1.9,6.9,4.7c2.1,3.6,1.9,9.4,1.9,9.4S313.1,66.4,308.7,62.5z M260.8,51.3c0,0,2.3-5.7-14.8-5.6
		c2.2-6.3,9.3-5.6,22.9-22.4c17.6-21.8,13.1-22.9,21.8-28.3c0,12.4-5.6,29.9-5.6,29.9l8.2,1.3c0,0-1,0.9-5,4.8
		c-4.1,3.9-12.9,11.6-12.9,15.7s21.4,12.9,21.4,12.9c-17-2.6-33.1,5.6-33.1,5.6s-1.4,4.5,7.8,8.4c9.2,3.9,15,10.5,15,10.5
		c-9.2,0.6-4,4-19.2,7.9c-15.1,3.9-14.3,11.7-14.3,11.7c10.5,0,28.5,13.1,39.6,27.2c0,0-7.1-5.1-9.2-2.2c-1,1.4-0.3,3.1,1.3,5.1
		c2,2.5,6,4.2,6.7,5.6c5,10.3,1.5,26.6,1.5,26.6s1.4-2.8,6.9-4.6c3.8,14.3-1.7,23.5-1.7,23.5s2.1,2.6,10.1,0.4
		c-3.3,11.6-7.9,18.9-26.8,25.4c0.8,3.8,10.2,2.2,10.2,2.2c-10.6,17.2-21.5,22.1-41.9,18.8c5.1,8.8,15.3,11.5,15.3,11.5
		s-6.6,5.6-18,6.4c-27.2,2-25.6-12.7-34.7-10.4c-0.3,7.5,8.8,16,8.8,16s-10.3,2.8-22.7-2.8c-25.1-11.2-23.5-20.7-29.4-30.1
		c-6.2,9.5-4.6,21.6-4.6,21.6s-8.4-3.3-13.1-15.8c-4.5-12.1-5.9-13.7-5.9-13.7c-5.5,5.2-1.5,10.6-6.1,12.5
		c-6.3-10.2-2.7-15.1-6-29.2c-1.5,8.6-7.1,11.9-7.1,11.9s0.7-4.2-3.6-10.8c-3.5,5.3-3.5,11-3.4,13c-0.3-1.7-1.9-5.8-10.8-10
		c-11.5-5.5-29.6-5.4-29.6-5.4l24.5-9.1c0,0-2.5-5.6,1.5-9.2c4-3.6,11.4-0.6,26.7-3.5c15.3-2.9,16.2-14.8,16.2-14.8
		s11.8,11.6,30.6,12.5c-15.6-7.9-13.6-18.7-14.4-20.3c2.4,2,21.5,17,47.6,17.7c-19.8-10.7-27.9-29-27.9-29s27.2-0.5,44.6-11.5
		c-13,5.8-34.8-1-34.8-1s23.1-1.5,48.6-23.6c-7.7,5.9-26.4,2.6-26.4,2.6s6-4.9,23.1-14.7c17.1-9.8,18.7-22.5,18.7-22.5
		s-1.5,4.1-6.9,6.7c-3.3,1.6-29,3.8-29,3.8s14.3-8.3,22.6-18.7C252.4,51.5,260.8,51.3,260.8,51.3z M232.7-38.9
		c-2.9-6.6,0.8-33,0.8-33s-0.7,4.2-4,8.8c-0.7,1-1.6,2-2.6,3c-1.2,1.2-2.7,2.5-4.4,3.6c-3-7.8,2.1-9.5,5.2-30
		C219.4-75,206-73,206-73s4.6-8.4,4.3-34.3c-2.4,8.9-13.8,11.4-13.8,11.4s-1.9-3,6.4-25.2c-29,15.8-49.3,15.3-51,14.7
		c0.4,0.4,1.9,2,4.7,4c3.4,2.4,8.9,5.2,17.1,6.8c-0.4,1.4-0.9,2.8-1.5,4.1c-2.7,5.9-6.7,10-11,12.7c-8.4,5.5-17.5,6.1-17.5,6.1
		s21,9.5,54-15.5c-0.5,1.9-1.1,3.7-1.8,5.4c-1.9,5-4.5,9.3-7.4,12.9c-10.7,13.8-25.3,18.6-25.3,18.6s10.2,4.5,29.2-9
		c-1.5,14.3-4.7,21.8-4.7,21.8s7.8,0.4,25.5-12.4c-3,17.2-8.3,26.2-15.9,31.5c13.1,3,22.5-5.6,22.5-5.6s-0.7,10-13.3,26
		c-12.6,16-11.7,20.7-11.7,20.7s-0.4,1.6,6.4,1s10.7-6.9,10.7-6.9s0.2,4.3-11,23.3C183.8,68.3,176.2,62,162,75.7
		c0-13.7,4.4-9.4,5.5-27.4c1.1-18-3.3-22.4-3.3-22.4s-1.5,14.1-11.4,14.9c0.4-5.6,1.6-49.8-29.9-55.2c2.3,16.8-3.4,29.4-3.4,29.4
		s8.6-1.2,22,14.8c-6.4,27.5-33.9,32.6-33.9,32.6s0.9,5.5,13.7,8.5c-22.8,19.7-46.2,4.7-46.2,4.7s-1.9,2.8,4.6,11.2
		C59,82,51.6,66.2,51.6,66.2s-5.2,3.7-6.3,10.2c-4.1-0.5-11.4-17-14.4-30.9c-3.1-13.9,5-16.3,1.8-17.2s-2.9,4.3-7.5,6.3
		c-4.7,2-9.5-2-11.8-15.1C11,6.5,16.3,1.4,19,1c2.7-0.4,4.4,3.6,7.7,4.2c3.3,0.5,3.1-1.1,3.1-3.5c0-2.4,11.3-7.1,11.3-7.1
		s-3.5-9.3-5-16.3c-1.4-7,0.2-12.9,5.4-8.4s7.1,1.9,7.1,1.9s-2.5-2.5-0.8-5.1s4.9-5.5,6.1-17c1.2-11.5,3.8-15.2,13.6-24.9
		c0.4-0.4,0.8-0.8,1.2-1.2c6.3-6.3,11.9-12.7,15.9-17.5c1.6-1.9,2.9-3.5,3.8-4.8c0.2-0.3,0.4-0.6,0.6-0.8c0.4-0.5,0.8-1.1,1.1-1.7
		c0.5-0.8,1-1.5,1.4-2.3c2.6-4.6,4.4-9.4,4.4-9.4s-0.9,2.6-7,6.8c-6.1,4.3-8.5,2.6-8.5,2.6s-0.4-1.2,0.4-5.5
		c0.2-1.1,0.5-2.4,0.9-3.9c0.6-2.4,1.6-4.2,2.8-6.3c1.7-3.2,3.7-7,5.2-14.8c0.1-0.7,0.3-1.4,0.4-2.2c0.4-2.5,0.8-5.3,1-8.5
		c-2,4.7-9.1,7.6-15.7,9.2c-0.4-0.8-0.6-1.6-0.7-2.4c-0.1-1.4,0.2-3,0.8-5c0.4-1.1,0.8-2.3,1.4-3.8c2-5.4,1.5-12.6,1.5-12.6
		s-1.2,3.6-10.4,8.5c-0.9-1.6-1.1-3-1.1-4.5c0-0.6,0-1.3,0.1-2c0.1-1.8,0.4-4.1,0.3-7.4c-0.1-7.8-3-12.6-3-12.6s-2.8,7.3-7.6,6.4
		c-2.8-0.5-4.6-1.3-4.3-4.4c0.3-3.1-3-7.8-3-7.8s0,2.7-6.2,2.2s-5.5-6.5-10.2-8.3c-4.7-1.8-6.3,1.4-9.5,2.5s-6.5-1.9-6.5-1.9
		s-1,2.6-4.4,7.9s-7.1,3.8-10.4,3.4c0,2.5,1.9,2.8,4.5,4.8c1.5,1.1,3.1,2.8,4.8,5.8c2.6,4.7,4.1,12.6,4.1,12.6s8.7-1.8,14.5-0.5
		s8,3.2,9.9,7.6s4.3,8.7,9.2,17.6s7.5,16.9,7,23.4S57.1-99,56.9-93c0,1.7-0.2,2.8-0.7,3.8c-1.3,2.5-4.5,3.7-12.8,9.7
		c-2.7,2-4.8,3.2-6.4,4c-4.6,2.2-5.4,0.6-5.6,0.2c0-0.1,0-0.1,0-0.1s0.8-1,1.9-2.5c2.8-3.8,7.9-11,9.5-15.8c0.2-0.7,0.4-1.4,0.5-2
		c0.6-6.2-2.5-6.5-2.5-6.5s-2.3,6.2-17.3,6.2s-16.7-7.3-28.6-6.8s-6.5,6-19.4,7.9c-5.3,0.8-20-2.7-22.9-3.7
		c-2.9-1.1-4.9-2.9-5.3,0.4c-0.2,1.5-0.2,2.8,0.1,4.1c0.4,1.7,1.4,3.5,3.4,6.2c3.7,4.8,3.8,6.7,7.2,7.9c2.1,0.8,3.6,1.5,4.6,2.1
		c1.9,1.1,2.3,1.9,2.3,1.9s-3.2,0.8-7.4,0.5s-5.7-0.8-10.9-0.3c-5.1,0.4-7.9-5.8-13.1-15.9c-2.8-5.4-5.2-7.8-6.5-9.9
		c-1.1-1.9-1.3-3.7,0.1-7.2c2.8-7.7,4.1-26.1,10.8-31.6s4.9-6.2,9.3-10.5c2.9-2.9,6.8,1.5,10,0c6.1-2.8,2.8-7.8,6.4-11.4
		c2.9-2.9,8.2-5.3,10.3-11.1c0.5-1.4,0.9-3,0.9-4.9c-4.3,0.2-6.5,4.9-10.4,4.8c-3.9-0.1-2.8-5.2-8.7-9.2s-8.3-1.4-8.7,1.5
		c-0.6,4.5-12.4,6.6-23.1,0.8c-6.3,18.5-10.7,17-10.7,17s-2.8,2.1-7-15.4c-2,3.4-1.7,9.1-0.8,20.6c-3.1,0.3-4.9-0.3-11-11.7
		c0.1,4.7,0.1,9.1,0.3,13.4c0.5,8.5,1.7,16.4,6,25.1c0,0-0.3,0.6-0.7,1.3c-0.9,1.7-2.7,4.5-4.7,5.4c-2.9,1.3-3.1-4.4-10.2-5.2
		c0.5,1.4,0.9,2.7,1.4,3.9c11,31.6,13.8,30.9,21.8,43.1c1,1.5,1.8,2.9,2.5,4.1c1.5,2.6,2.5,4.7,3.3,6.7c1.9,4.9,2.7,9.8,7.8,22.6
		c-5.9,1.4-14.5,12.8-14.5,12.8s4-2.6,9.3-0.7c5.3,1.9,5.6,5.3,5.6,5.3s1.6,1.6,16.6,5.8c2.7-1.5-0.4-5.4,4.5-12.6
		c11,12.3,8.4,20,14.7,34.9c4.6-0.8,11.3-5.1,11.3-5.1s3.5-0.4,3.3,25c-0.3,39.3-10.4,49.6-11.4,49.6c-1,0,1-5.2-3.3-4.8
		c-4.3,0.4-3.1,1.4-9.3,9.6c-6.2,8.3-10.5,9.4-17.1,12.6c-6.5,3.2-6.2,4.4-6.2,4.4s-1.8-4.4,1.9-8.4s1.2-5.7,1.2-5.7
		s-7.5,5.6-25.5,5.1c-18-0.6-13-3.2-18.2-4.1c2-3,13.5-5.4,12.4-7.5c-1-2.1-4.4,0.8-19.3-7.6c-15-8.5-22.1-25.4-19.6-27
		c2.5-1.6,4.9-3.1,6.8-5.5c1.9-2.3,7.8,5.5,7.8,5.5s-4.7-8-2.6-12.5c2.1-4.6,8.4-2.9,14.4-4c-6.9-7.4-1.2-25-1.2-25
		s-7.7,7.6-9.3,20.3c-3.9-5.5-9.5-5.6-9.5-5.6s-1.9,2.6,0,5.6c2.1,3.2,0,8-1,9c-2,2-5.4,2.7-20.4,0.4c-5.1-8.6-3.3-22.9-3.3-22.9
		s-10,3.5-13.7,19.9c-5.9,26,9.3,41.1,9.3,41.1s-2.1,4.5-8.4,4.2c-10.9-0.5-16.9-15.3-30.3-20s-19.8,0.3-19.8,0.3s-3.3-1.6,0.6-8.7
		c6.3-11.5,18.1-10.4,18.5-10.4c-0.4,0-4-0.8-15.3-12.8c-12.1-12.8-6.2-25.9-6.2-25.9s3,1.6,4.8,4c3.7,5,10.2,3.7,10.2,3.7
		s-1.7-3.4-6.5-13c-4.8-9.7-10.8-17.4-10.8-19.2s1.7-2.9,12.3,2.3c-4.8-10.1-4.6-14.2-1.2-19.4c5.4,7.4,14.1,16.5,27.7,18.7
		c-10.9-7.2-13.9-16-13.9-23.6c0,0,3.6,3,17.6,7.1c17.1,5,23.3-2.3,23.3-2.3s-6.6-1.8-16.4-7c-3.6-1.9-6.5-3.9-9.1-5.8
		c-7.2-5.4-10.7-10.4-12.4-13.6c-1.1-2.2-1.4-3.5-1.4-3.5s3.7,1.5,12.4,1.9c18.5,1,27.1-4.1,30.9-8c2.3-2.4,2.9-4.3,2.9-4.3
		s-31.2,7.5-55.9-34.1c-1,5.7-2.2,12.2,0.9,20.5c1.6,4.1,4.1,8.7,8.4,13.8c-0.6,0.2-1.2,0.4-1.8,0.6c-8.1,2.2-16.1-1.5-30.8-14.5
		c-0.8,3.9-0.9,7.7-0.4,11.3c0,0.1,0,0.1,0,0.1c0,0.3,0.1,0.5,0.1,0.8c1.8,12.4,9.4,22.4,13,26.5c1.1,1.3,1.8,2,1.8,2
		s-11,2.2-26.4-8.9c-0.5,8.1,0.4,11.6,3.8,18.3c1.2,2.3,2.8,5.1,4.7,8.6c-0.3,0-0.6-0.1-0.8-0.1c-6.9-0.5-13.3-7.6-17.5-13.3
		c-0.6-0.9-1.3-1.8-1.8-2.6c-1.9-2.8-3-4.9-3-4.9s-2.1,8.7,0.5,23.5c0.6,3.6,1.6,7.5,2.9,11.8c0.3,1,0.6,2.1,1,3.2
		c-7.2-7.2-11.3-14.3-13.7-21.5c0-0.2-0.1-0.4-0.2-0.6c0,0,0,0,0,0c-3.4-10.8-2.8-21.7-2.4-33.1c0.6,1.2,1.3,2.1,2,3
		c1.3,1.5,2.6,2.7,3.9,3.5c3.5,2.2,6.7,2.2,6.7,2.2s-4.5-16.5-2.7-31.3c0.8,1.4,2,2.6,3.2,3.6c0.3,0.2,0.6,0.5,0.9,0.7
		c4.5,3.3,10.1,4.4,10.1,4.4s-7.6-21.2,1.7-47.4c0.2,1.3,0.6,2.6,1.1,3.9c2.3,5.8,7.8,11.5,14.4,11.6c2.7,0.1,5.6-0.8,8.5-3
		c-0.9-25.2,4.6-39.4,8.2-45.9c0.8-1.6,1.8-3.1,2.8-4.3c-1.6-4.5-2.1-11.5-2.1-16.2c-0.2-6.8,0-10.1,0.1-10.9
		c-3.3,3.7-7.2,11.8-8.3,15.8c-2.9,10.9-1.1,18.4-1.1,18.4s-4.1-1.1-7.5-9.9c-1.8-4.7,0.1-13.6,3.7-21.2c2.4-4.9,7.6-5.8,7.7-12.3
		c0,0,4.9,1.3,6.9,3.7c3.1-1.8,8.9-5.4,15-11.4c0,0,0,0,0,0c4.7-4.9,9.2-8,10.5-8.1c1.4,5.8,7.9,0.8,7.2,7c0.8-7.2,5.1-10.8,9.6-13
		c0,0,2.3,3.4,0.6,11l0.1,0c2.5-9.1,7-7.6,13.6-13.5c0,0,1.3,6.3,1.4,9.4l0.1,0c0.5-9.8,6.9-8.1,10.7-12.9c-0.3,3.1-0.5,5.8-0.4,8.2
		c6.6-9.3,17.3-12.2,28.6-19.8c-1.3,7.4,4.9,7.3,3.4,10.2c13.3-15.6,18.2-17.7,31.6-19.3c-0.4,1.5-1.8,8.2-2.5,11.1
		c1.7-5.5,8.4-9.2,8.5-7.4c0,5.4,4.4,6.8,7.8,6.9c0.7-5.6,3-11.4,7.6-15.2c0.3,0.2,3.8,14.5,15.3,13.3c-0.1-4.6-0.3-12.5-0.3-12.5
		c9.5-3.3,11.8,10.1,17.6,8.7c-1-7.7,3.8-17,9.3-17.5c0.9,7.1,3.1,11.9,8.9,17.5c5.9-2.1,7.3-8.1,8.7-11.9
		c6.7,1.9,11.6,8.6,10.3,12.9c6.7-1.5,9-13.8,7.9-16.9c0,0,9.8,5.6,8.4,13.8c3.9-2.2,5.1-8.2,5.1-8.2c7.5,5.4,5.1,8.4,5.7,13.7
		c4-1.5,9.1-9.8,10.9-13.7c2.4,4.7,9.2,17.8,14.6,19.1c7.3-3.7,2.5-12.9,2.5-12.9s9.8,0.1,17.4,8.7c1.2,1.4,2.1,3.4,2.8,5.8
		C90.8-263.4,98-267,98-267s4.9,6.2,10.9,9.2c6.8,3.4,14.6,3.5,13.7-2c10.3,1.6,13.2,6.5,14.3,9.9c0.6-1.8,2.2-4,5.9-5.8
		c4.8-2.3,10.7-1.3,10.7-1.3s-7.4,10.6,2.6,23l0,0c2.1-3.7,5.5-9.5,5.9-11.8c0,0,12.7,8.7,9.5,20.8c2.3,0.9,7.7-5.2,8.5-12.8
		c7.8,4.4,16.2,12.1,18.2,17.1c4.3-7.3,15.2-1.9,15.2-1.9s-3.6,2.3-2.2,5.5c0,0,20,14.5,12.4,34.7c-0.4,1.1-0.9,2.2-1.4,3.4
		c-0.2,0.4-0.4,0.8-0.6,1.2c-0.5,1-1,1.9-1.6,3c-0.3-2-0.7-4-1.1-6.1c-1.5-6.6-3.9-13.1-6.2-18.6c-1.1-2.6-2.2-4.9-3.2-7
		c-1.6-3.4-3.1-6-4-7.6c-0.7-1.2-1.1-1.8-1.1-1.8s0.2,0.9,0.4,2.4c0.2,1.7,0.4,4.3,0.1,7.3c-0.3,4.5-1.6,10-4.9,15.1
		c-1.5,2.3-3.4,4.5-5.9,6.4c0,1.8,0,3.4,0,4.8c0.2,9.1,0.8,11.6,0.8,11.6s3.1-0.5,7.9-7.7c1.1-1.7,2.3-3.7,3.5-6.1
		c1.3,3.2,2.1,5.7,2.7,8.8c1,5.6,1,13.1,0.3,30.1c1.9-0.4,4-1.9,5.9-3.9c2.5-2.5,4.8-5.7,6.5-8.3c1.6-2.5,2.7-4.4,2.7-4.4
		c2.7,7.7,6.9,22.1,4.6,44c-1.4,13.7-5.5,21.6-5.5,21.6c8,0,14-10.9,14-10.9S249.7-68.9,232.7-38.9
		C232.7-38.9,232.7-38.9,232.7-38.9z M-89.7,27.4c1.4,1.1,3.3,2,5.4,2.4c1.2-5,1.4-5.2,1.6-8.7c-2.2-0.9-4.3-2.2-6.7-2.9
		C-87.4,21.7-91.9,23.9-89.7,27.4z M-96.2,29c-3.8-5.2-7.6-24.5,11.6-27.7C-63-2.3-60.7,19.8-60.7,19.8s6.4-3.9,8.8-12.8
		c0,0-16-16-36-13s-23.3,24.2-23.3,24.2S-104.3,29.8-96.2,29z M-148.3-154.6c-0.9-5.4-12.2-9-15.3-5.2
		C-165.3-148.8-154.6-156.4-148.3-154.6z M-182-117.6c5.7,6.8,16.8,12.4,19.5,12.9c5.7,0.9,6.6-0.8,6.6-0.8c-2-0.7-2.7-2.3-3.4-3.8
		c-4-9.3-26-21.3-30.3-21.6C-187.8-126-185.3-121.5-182-117.6z M-180.7-228.3c-0.9,1.7-1.7,3.8-2,6.4c-0.9-2.5-2.4-4-3.8-4.9
		c-1.5-1-2.8-1.3-3.2-1.3c-0.8,0-10.8,2.4-15.9,13.4c-0.9,1.9-1.4,3.6-1.8,5.3c-0.7,3.6-0.6,6.6-0.3,8.8c0.5,3,1.5,4.8,1.5,4.8
		c-0.2-1.2-0.2-1.8,0-2.6c0.4-1.5,3.6-1.8,4.1-7.6c5.4,15.5,11.8,12.5,14,10.9c0.5-0.4,0.8-0.7,0.8-0.7s-1-1.9-1.7-5.4
		c-0.9-4.6-1.4-11.9,1.6-21.4c3.6,4.6,2.9,5.6,3.2,8.2c0.1,1.1,0.5,2.5,1.5,4.6c0.1,0.3,0.3,0.5,0.4,0.8c3.2,6.1,6.5,7,6.5,7
		s-0.4-4.4-1.6-15.1c-0.4-4-0.2-7.4,0.4-10.1c0.9-4.5,2.4-7,2.4-7S-178.3-232.7-180.7-228.3z M-181.3-147.1
		c-1.6,3.3,0.7,7.7,3.1,10.3c2.4,2.6,16.1,14.2,24.6,16.5c-4.7-7.1-7.2-4.5-11.1-15.8C-168.6-147.4-181.3-147.1-181.3-147.1z
		 M-147.3-236.3c-0.1-0.6-0.1-1.2-0.2-1.9c-0.1-1.1-0.1-2.4-0.2-3.6c0-0.5,0-0.9,0-1.4c-0.8,0.7-1.5,1.4-2.1,2
		c-6.4,6.5-4.1,8.9-7.1,13.4c0-6-2.9-3.9-3.4-10.5c0-0.6-0.1-1.1-0.1-1.8c-0.8,0.8-1.4,1.6-1.9,2.4c-2.3,3.4-2.6,6.6-1.9,10.7
		c0.4,2.5,1.3,5.4,2.3,8.8c0.6,1.9,0.9,3.5,1,4.9c0.3,2.1,0.2,3.8,0,5c-0.3,1.8-0.9,2.9-1.2,3.4c-0.1,0.2-0.2,0.3-0.2,0.3
		s0.1-0.1,0.2-0.1c0.9-0.4,7.1-3.8,7.3-11.2c0.3-8,4-8.9,4-8.9s0.5,2.9,2.9,5.7c2.6,3,4.4,2.9,5.6,2.1c1.1-0.7,1.6-2.1,1.6-2.1
		S-145.8-223.4-147.3-236.3z M-119.8-249.6c-2.2,1.3-4.8,2.1-8.5,2.6c-6.3,0.8-9.1,5.1-10.4,8.6c-0.9,2.6-1.1,4.7-1.1,4.7
		s1.2-1.8,4.5-2c0.4,0,0.8-0.1,1.2,0c1.3,0.1,2.4-0.6,3.4-1.5c2.2-2,3.5-5.4,3.5-5.4s0.4,3.3,1.1,8.4c0.2,1.1,0.6,2,1.2,2.6
		c1.9,2.2,5.4,1.9,5.4,1.9s-4.2-8.8-1-13.8c1.9-3,2.8-5.3,3.1-6.7c0.3-1,0.3-1.6,0.3-1.6C-117.7-250.9-118.7-250.2-119.8-249.6z
		 M-88.2-253.8c-1-1.1-1.5-2.1-1.8-2.9c-0.6-1.9,0.4-2.9,0.4-2.9s-7.5,0.5-12.1,5c-0.7,0.6-1.2,1.4-1.7,2.2
		c-3.8,6.2-2.5,10.5-0.6,13c1.4,1.9,3.1,2.9,3.1,2.9c0.9-0.6,1.5-1.1,2-1.7c1.3-1.6,1.7-3.3,1.9-5.3c0.3-2.8,0.5-6,3.1-9.8
		c0.2-0.2,0.3-0.5,0.5-0.7c0,0.2,0.1,0.4,0.2,0.6c1,4.4,4.5,6.4,6.7,7.2c1.1,0.4,1.8,0.5,1.8,0.5S-84.8-250.2-88.2-253.8z
		 M44.9-207.1c-0.1,0-0.1,0-0.1,0s0-3.2,1-6.4c0.6-1.9,1.6-3.9,3.2-5.2c-11.9,4.3-9.2,4.5-14.4,4.3c-1.4-1.4-2.2-3-2.4-4.7
		c-0.2-1.2-0.1-2.4,0.2-3.6c0.4-1.8,1.1-3.5,1.9-5.1c-6.9,2.8-9.4,6.5-9.4,6.5s2.7-6.8,0.3-12.6c-4.2,8.4-8.8,5.6-8.8,5.6
		s2.6-8.4-1.9-11.2c-1.1,5.7-3.3,4.8-3.3,4.8l-2.4-2.5c0,0-1,4.3-4.6,6.2c-6.7-4.5-3.7-8-9.5-8c-3.8,11.4-5.5,9.6-5.5,9.6
		s-4.4-2-5.5-13.7c-6.7,8.1-4.3,13.3-3.9,14.1c0,0.1,0.1,0.1,0.1,0.1s-0.1,0-0.1,0c-0.4,0-4.4-0.6-5.3-7.2c-2.2,5.5-0.4,7.2-2.3,9.1
		c-2,2-8.6-2.4-8.6-9c-6.9,3.8-5.4,8.7-4.8,10.1c0.1,0.3,0.2,0.4,0.2,0.4s-0.2,0.1-0.4,0.2c-1.1,0.6-4.9,2-10.2,0.2
		c-6.5-2.3-10.2-5.2-10.2-5.2s0,2.2,0.4,4.9c0.5,2.8,1.5,6,3.5,8c2.9,2.9,2.9,4.1,0.4,4.7c-1,0.2-2.4,0.3-4.2,0.4
		c-6.4,0.1-10.7,0.2-10.7,0.2s2.7,1.3,3.1,4.4c0,0,0,0.1,0,0.1c0.2,1.3-0.4,2.1-1,2.8c-0.9,1.1-2.2,2.3-2.2,5.2c0,0,1.7-0.9,3.6-2.3
		c0.7-0.5,1.5-1.1,2.2-1.7c2.7-2.2,5-5,12.5-3.3c8.2,1.8,12.5,1.1,12.7-2.4c0.2-3.3,2.9-3,8.1-3.2c3.3-0.1,8.8-1.2,11.8-0.9
		c6.8,0.7,12.6,3,15.4,2.6c5.8-0.9,5.7-7.6,11.1-3.4c8.4,6.5,15.5,6.2,22.8,5.1s7.5-0.2,7.5-0.2s-2.3,4.6,5,5.1
		c1.6,0.1,2.8,0.3,3.9,0.6c1.2,0.3,2,0.6,2.7,0.9c1.6,0.7,2,1.4,2,1.4s0.7-0.4,1.4-1.1c1-0.9,2.2-2.4,2.2-4.2
		C48.5-206.4,45.5-207,44.9-207.1z M80.5-256.3c-0.1-0.2-0.3-0.4-0.4-0.6c-4.6-7.3-9.7-5.5-10.3-5.6l-0.1,0.1c0,0.5,1,2.6,2.1,6
		c0.3,0.9,0.6,1.8,0.9,2.9c1.7,5.9,0.2,12.7,0.2,12.7c2.7-0.3,3.9-2.3,4.4-4.7c0.2-0.7,0.3-1.4,0.3-2c0.2-2.6-0.2-5-0.2-5
		s1.7,3.2,4.6,6c1.6,1.6,3.6,3,6,3.6C85.9-245.4,85.2-248.2,80.5-256.3z M126.9-114.2c10.4-0.6,5.7,6.9,31.1-8.1
		c7.2-4.3,12.3-9.3,16-14.3c9.7-13.1,9.5-26.2,9.5-26.2s-0.6,2.5-2.4,6.1c-1.6,3.2-4.1,7.2-8.1,11.2c-4.6,4.6-11.1,9.1-20.4,11.9
		c-26.2,7.9-26.5,19.5-26.5,19.5C126.4-114.2,126.6-114.2,126.9-114.2z M81.6,26.9c0.4-1.7,1.1-6.6,1-10.4c-1.9-0.4-3.9-0.9-5.8-1.3
		c-1.5,2.1-1.4,4.8-2.1,7.2C77.2,23,79.1,26.2,81.6,26.9z M84.4-9.6C66.6-9.6,58,2,56.3,7.8c2.2,8.7,10,11.8,10,11.8
		s-1.8-6.3,3.7-15.7C75.3-4.9,91.9-6,98.7,4s5.8,17.8,1.5,22.1c8.9-3.6,13.4-11,14.5-15.4C111.9,4.2,102.6-9.6,84.4-9.6z
		 M130.3-248.5c-2.1-1.8-2.7,0.8-2.3,5.5c-4.3-2.4-2.9-6.2-5.5-8.8c-1.5-1.5-8.6,7-8.6,7s0,0-3.7-6.2s-10.5-5.1-10.5-5.1
		c0.5,2.9-3.9,5.2-2,6.9c-5-3.3-5.3-7.8-5.3-7.8s-1.3,1.9-1.2,6.1c0,1.3,0.2,2.8,0.6,4.6c1.4,6.8,5.6,11.1,8.6,13.3
		c0.6,0.4,1.1,0.8,1.5,1.1c0.9,0.6,1.5,0.9,1.5,0.9c-1.5-2.6-2.1-4.9-2.3-6.9c-0.2-2.8,0.5-5.1,1.3-6.8c1.1-2.1,2.4-3.3,2.4-3.3
		s0.2,2.2,1.1,5.1c0.2,0.8,0.5,1.7,0.9,2.6c1.3,3.3,3.5,7.1,7.1,9.9c0.8,0.6,1.6,1.1,2.5,1.6c0.4,0.2,0.7,0.4,1.1,0.6
		c-1.7-1.7-2.4-5.1-1.5-9c0-0.1,0-0.1,0-0.1c0.5-2.1,1.4-4.3,2.8-6.5c1.1,1,0.9,3.6,2,8.7c0,0.1,0,0.2,0,0.3l0.1,0.1
		c0.3,1.4,0.7,2.9,1.2,4.7c1.7,5.6,5.9,9.4,8.5,11.3c1.3,1,2.3,1.5,2.3,1.5s0.4-2.6-1.3-7.6c-0.2-0.5-0.4-1.1-0.6-1.7
		c-0.4-1-0.6-2-0.8-3c-0.3-1.8-0.2-3.4,0-4.9c0.4-2.4,1.4-4.6,2.1-6.5C133.7-244.5,132.4-246.7,130.3-248.5z M149.7-228.7
		c-0.7-9.5-4.8-5.9-5.9-17c-2.1,0.9-3.5,1.8-4.3,3.1c-0.4,0.7-0.6,1.6-0.6,2.6c0,2,0.8,4.6,2.4,8.4c0.2,0.5,0.3,0.9,0.5,1.4
		c1.2,3.3,1.4,5.9,1.1,7.8c-0.2,1.6-0.7,2.8-1.1,3.5c0,0.1-0.1,0.1-0.1,0.1c-0.3,0.4-0.5,0.6-0.5,0.6s0.1,0,0.4-0.1
		c0.5-0.1,1.5-0.3,2.6-0.8c0.7-0.3,1.5-0.8,2.3-1.4c0.2-0.2,0.4-0.4,0.6-0.6c0.1-0.1,0.3-0.3,0.4-0.4c1.2-1.4,2.1-3.3,2.1-6
		C149.7-227.9,149.7-228.3,149.7-228.7z M147.3-210.6c0.1-4.4,0.3-8.8,0.3-8.8c0,0.3-7.9,8.8-7.1,15.2c0,0.1,0.1,0.2,0.1,0.4
		c0.7,4.4,4.3,4.3,5.9,2c0.6-0.8,0.9-1.8,0.9-2.9c0-0.2,0-0.4,0-0.6C147.3-206.8,147.3-208.7,147.3-210.6z M125.4-146.7l-0.3,3.6
		l-0.7,10.9c0,0,20.4,1.6,28-33c0.5-2.1,0.9-4.3,1.2-6.6C141.3-148.3,125.4-146.7,125.4-146.7z M162.3-238.6c0,0,0.4,3-1.5,9.9
		c-0.3,1-0.6,2.1-1,3.3c-0.4,1.1-0.8,2.4-1.3,3.7c-0.3,0.7-0.5,1.4-0.9,2.2c-0.1,0.3-0.2,0.6-0.4,1c-0.5,1.2-0.9,2.3-1.3,3.3
		c-1.5,4.2-2,6.9-2,8.8c0,2,0.6,2.9,0.9,3.3c0.2,0.2,0.4,0.3,0.4,0.3c0.1-0.4,0.1-0.7,0.2-1c1.1-5.3,5-6.2,6.8-8.4
		c2.4-2.9,3-4.2,3.6-8.6C167.6-233.4,162.3-238.6,162.3-238.6z M188.9-223.1c-0.6-0.4-1.1-0.3-1.1-0.3s-2.1,13.5-3.8,21.2
		c-0.2-0.1-0.3-0.3-0.4-0.4c-4.6-4.9,1.2-10.8-8-19.4c0.7,4.6-0.9,10.5-3,15.8c-2.8,7.1-6.6,13.1-6.9,13.5c0,0,0.3,0.4,0.9,0.9
		c0.9,0.6,2.4,1.3,5.2,1.1c0,0,0,0,0,0c0.6,0,1.2-0.2,1.7-0.5c3.5-1.8,4.7-7.8,4.7-7.8s0.4,0.5,0.8,2c0.3,1.3,0.6,3.3,0.5,6.5
		c-0.1,7.1,2.2,8.6,2.2,8.6s4.9-1.7,7.9-10.1c0.4-1.3,0.8-2.6,1.2-4.2c0.3-1.4,0.6-2.9,0.8-4.7C193.3-218,190.6-222.1,188.9-223.1z
		 M119.2,212.7c0,0,0-0.3-0.1-0.8C119.3,212.4,119.2,212.7,119.2,212.7z M315.4,129.5c0,0-3.1-3.8-10-8c-9.5-5.9-19.4-7.1-19.4-7.1
		s9.6-5.1,22.2,0.6c-9.5-17.1-29.5-15.8-31.9-15.5c-0.7,0.1,13.6-3.6,26,2.4c4.1,2,9.6,7.6,9.6,7.6l-5.6,0.4
		C317.7,115.1,315.4,129.5,315.4,129.5z M278,71.8c-0.1,0,10.7-6.3,22.4,0.3c14.9,8.4,17.3,16.3,17.3,16.3s-7.3-5.6-17.7-9.7
		C290.2,74.8,280.8,71.6,278,71.8z M303.9,43.3c-7.8,2.9-13.3,1.5-13.3,1.5s6.5-2,11.7-6.6c5.2-4.6,7.1-10,7.1-10
		S312.7,40,303.9,43.3z M296.8,17.8c0,0,3.6-6.1,5.6-13.2c2-7,3.3-12.2,3.3-12.2c0.3-1.5,7.3,3,2.3,12.6
		C305.1,10.9,296.8,17.8,296.8,17.8z M-302.2,9.7c-4.6,1.1-10.5-0.3-15.3-1.8c-0.9-0.3-1.9-0.9-2.8-1.6c-1.7-1.4-3-3.4-3.1-5.9
		c0-2.1-1.2-4.7-1.2-4.7s4.7,1.1,6.8,3.3C-309.6,7.7-302.2,9.7-302.2,9.7z M-311.5-52.1c0.6,2.5,1.2,4.7,1.9,6.6
		c0.5,2.3,0.9,3.3,1.3,3.5c0.7,1.7,1.2,2.6,1.2,2.6s-12.6-3.5-13.8-21.7C-318.1-61.7-314.4-60-311.5-52.1z M-302.4,109
		c2.1-1.1,6.6-1.2,11.1-0.9c1.6,0.1,3.2,0.2,4.7,0.4c4.4,0.8,7,0.9,7,0.9s-0.2,0.2-0.6,0.5c-1.4,1-5.1,3.5-12.1,6
		c-3.7,1.3-7.8,2-11.3,2.3c-5.3,0.3-8.2,0.9-12.4-5.2l-1.7-3.9C-317.7,109.2-311.2,113.6-302.4,109z M321.4,153.8
		c-2.7-10.2-10-15.2-10-15.2s3.7-3.6,11.9,4.7C322.4,145.1,321.4,153.8,321.4,153.8z M-303.7-74.2L-303.7-74.2
		c0.1,4.2,0.5,6.9,0.5,6.9s-2.1-1-6.6-8.3c-4.3-6.8-1.5-13-6.9-18.4c0,0,2.7,0,5.5,0.7c0.2,0.1,0.5,0.2,0.7,0.2
		c0.8,0.2,1.5,0.6,2.2,0.9c3.5,2.6,4.3,10,4.5,15.3C-303.7-75.9-303.7-75.1-303.7-74.2z M-303.9,129.8c3,1.9,5.3,1.2,5.3,1.2
		s-12.5,5.2-15.7,13.6C-315.4,138.1-306.9,127.9-303.9,129.8z M-236.8-177.7c0.5,12.4,3.6,23.5,6.2,29.1c0,0-7.6-4.1-12.3-23.3
		c-6.7-27.2,3.6-32.9,7.9-34.8c1.3-0.6,1.5,0.4,1.2,1.2C-237.4-197.2-236.9-179.9-236.8-177.7z M234.1-146.4
		c-0.9-18.9-8.8-40.6-5.3-54.9c3.8,12.8,9.1,12.7,11.9,22.7c1.3,4.7,1.6,11.5-0.5,18.8C238.5-154,235.5-148.3,234.1-146.4z
		 M-259.3-170.9c-8.1,12.1-2.6,31.7-2.6,31.7s-3.1-1.3-6.6-4.6c-3.7-3.5-9.4-11-11.6-17.1c-2.9-7.6-0.5-12.6-0.5-12.6
		s7.3,15,14.4,12.7c-0.2-5.3-0.5-11.8,2.9-16.4c3.4-4.6,9.9-5.4,9.9-5.4c-0.7,11.3,3.1,24.4,3.1,24.4S-254.1-157.8-259.3-170.9z
		 M-285.8-97.4c0,0-7.9-3.9-11.1-18.1c-1.8,3.7-3.1,7.6-4.1,11.6c-2.5-2.5-3.1-6.3-2.7-10.1c0.7-4.1,1.7-8,2.9-10.9l1.5-3.7
		c0,0,0.5-0.4,3.2-6.2l0,0c0,0,5.9,14.4,7.5,23.9C-287.5-103.2-285.8-97.4-285.8-97.4z M-286.8-136.5c-0.5,1.3-0.8,2.3-1.2,3.7l0,0
		c-3.7-3.1-4.1-11.3-3.2-19.4l0,0c0.7-5.1,4.1-10.5,4.1-10.5s3.9,27.8,11.5,43.8C-277-118.9-282.7-121.9-286.8-136.5z M-293.7,237.1
		c1-1.6,3.7,0.7,5.6,2.1c4,2.8,8.2,7.2,13.7,10.4C-292.4,244.1-293.7,240.1-293.7,237.1z"/>
</symbol>
<symbol  id="Nouveau_symbole_5" viewBox="-340.8 -85.9 681.6 171.8">
	<g>
		<path class="st0" d="M-152.5-70.3l8.4-7.5c-0.1-0.2-0.3-0.5-0.6-0.9s-1-1-2-2c-1.1-0.9-2.2-1.8-3.5-2.5c-1.3-0.7-2.9-1.3-5.1-1.9
			s-4.3-0.9-6.6-0.9c-6.6,0-12,2.1-16.4,6.4s-6.5,9.6-6.5,15.9s2.2,11.7,6.7,16.1s10,6.6,16.6,6.6c2.2,0,4.4-0.3,6.4-0.8
			c2-0.5,3.6-1.1,4.9-1.8c1.3-0.7,2.4-1.4,3.3-2.2c0.9-0.7,1.6-1.3,2-1.8l0.6-0.8l-8.8-7.6c-0.1,0.1-0.2,0.3-0.3,0.4
			s-0.4,0.5-0.9,0.9c-0.5,0.5-1.1,0.9-1.6,1.2c-0.6,0.3-1.4,0.7-2.4,1c-1,0.3-2.1,0.4-3.2,0.4c-3.2,0-5.9-1.1-8-3.3
			c-2.1-2.2-3.2-5-3.2-8.2c0-3.3,1.1-6,3.2-8.2s4.8-3.3,8-3.3c1.2,0,2.4,0.2,3.4,0.5c1.1,0.3,1.9,0.7,2.6,1.2
			c0.7,0.5,1.3,0.9,1.8,1.4c0.5,0.5,0.9,0.9,1.1,1.2L-152.5-70.3z"/>
		<path class="st0" d="M-107.6-41.6l17.2-43.7h-13.1l-2.6,7.5h-15.5l-2.6-7.5h-12.5l17.2,43.7C-119.4-41.6-107.6-41.6-107.6-41.6z
			 M-109.3-68.4l-4.5,13.2l-4.6-13.2H-109.3z"/>
		<path class="st0" d="M-50.5-70H-68v-15.3h-11.8v43.7h32.4v-10.3H-68V-60h17.5C-50.5-60-50.5-70-50.5-70z"/>
		<path class="st0" d="M-1.9-85.3h-33.7v43.7h33v-10.3h-21.2v-6.2h18.1v-9.7h-18.1V-75h21.8C-1.9-75-1.9-85.3-1.9-85.3z M-23.1-38.5
			l3.7,10.6h11.9l-6.9-10.6H-23.1z"/>
		<path class="st0" d="M22.4-73.2c0,2.5,0.6,4.8,2,6.9s3.5,4,6.5,5.8c-2.5,3.1-3.8,6.1-3.8,8.9c0,3,1.2,5.5,3.6,7.5
			c2.4,2.1,5.6,3.1,9.7,3.1c4.1,0,7.2-1,9.5-3.1c2.3-2.1,3.4-4.5,3.4-7.4c0-4.1-2.5-7.7-7.5-10.9l4.2-4.5l5.9,6.5h11.2L56.2-73.5
			l10.9-11.8H54.6l-4.7,4.9c-2.1-2.1-4.2-3.5-6.2-4.3s-4.3-1.2-7-1.2c-3.8,0-7.1,1.2-10,3.7C23.9-79.8,22.4-76.8,22.4-73.2z
			 M37.9-76.6c1.9,0,3.8,0.9,5.7,2.7l-6.9,7.2C34.3-68.3,33-70.1,33-72c0-1.3,0.5-2.4,1.4-3.3C35.3-76.1,36.5-76.6,37.9-76.6z
			 M37.4-52c0-1.2,0.9-2.7,2.7-4.7c2.5,1.3,3.8,2.8,3.8,4.5c0,0.9-0.3,1.6-0.9,2.2c-0.6,0.6-1.4,0.9-2.4,0.9c-1,0-1.7-0.3-2.3-0.9
			C37.7-50.6,37.4-51.2,37.4-52z"/>
		<path class="st0" d="M122.1-70.3l8.4-7.5c-0.1-0.2-0.3-0.5-0.6-0.9s-1-1-2-2c-1.1-0.9-2.2-1.8-3.5-2.5c-1.3-0.7-2.9-1.3-5.1-1.9
			c-2.1-0.6-4.3-0.9-6.6-0.9c-6.6,0-12,2.1-16.4,6.4c-4.3,4.3-6.5,9.6-6.5,15.9S92-52,96.5-47.6c4.5,4.4,10,6.6,16.6,6.6
			c2.2,0,4.4-0.3,6.4-0.8s3.6-1.1,4.9-1.8c1.3-0.7,2.4-1.4,3.3-2.2c0.9-0.7,1.6-1.3,2-1.8l0.6-0.8l-8.8-7.6
			c-0.1,0.1-0.2,0.3-0.3,0.4c-0.1,0.2-0.4,0.5-0.9,0.9s-1.1,0.9-1.7,1.2c-0.6,0.3-1.4,0.7-2.4,1s-2.1,0.4-3.2,0.4
			c-3.2,0-5.9-1.1-8-3.3c-2.1-2.2-3.2-5-3.2-8.2c0-3.3,1.1-6,3.2-8.2s4.8-3.3,8-3.3c1.2,0,2.3,0.2,3.4,0.5s1.9,0.7,2.6,1.2
			c0.7,0.5,1.3,0.9,1.8,1.4c0.5,0.5,0.8,0.9,1.1,1.2L122.1-70.3z"/>
		<path class="st0" d="M145.1-79.5c-4.4,4.3-6.5,9.6-6.5,15.9s2.2,11.7,6.7,16.1s10,6.6,16.6,6.6c6.6,0,12-2.1,16.4-6.4
			s6.5-9.5,6.5-15.9s-2.2-11.7-6.7-16.1c-4.5-4.4-10-6.6-16.6-6.6S149.5-83.8,145.1-79.5z M153.7-55.2c-2.1-2.2-3.2-5-3.2-8.2
			c0-3.3,1.1-6,3.2-8.2s4.8-3.3,8-3.3c3.2,0,5.9,1.1,8.1,3.3c2.1,2.2,3.2,4.9,3.2,8.2c0,3.3-1.1,6-3.2,8.2s-4.8,3.3-8.1,3.3
			C158.5-51.9,155.8-53,153.7-55.2z"/>
	</g>
	<g>
		<path class="st0" d="M-301.8,60.6c20,0,30.5-11,30.5-20.4c0-7.5-5.6-13.2-13-13.2c-14.4,0-7.7,16.5-18.2,16.5c-5.9,0-9-6-9-11.3
			c0-9.9,7.3-19.8,17.8-19.8c8.4,0,11.2,3.5,14,3.5c3.6,0,6-4,6-7.2c0-7.9-12-18-30.6-18c-20.1,0-36.3,14.8-36.3,35.2
			C-340.8,45-324.2,60.6-301.8,60.6z"/>
		<path class="st0" d="M-265.9,23.3c0,23.8,20.9,37.3,42.9,37.3c23.3,0,36.6-18.2,36.6-34.8c0-21.8-23.4-35.2-43-35.2
			C-249.1-9.3-265.9,2.3-265.9,23.3z M-228.8,44.9c-4.4,0-6.8-4.1-6.5-8c0.5-8.4,2.9-28.9,12.1-29.4c5.1-0.3,6.1,4,6.1,8.3
			C-217,21.7-219.7,44.9-228.8,44.9z"/>
		<path class="st0" d="M-145.5,16.4c0-2.4-0.1-6.8,0.5-8.9c1.5-4.8,7.5-2.5,7.5-8.1c0-8.9-16.2-8.3-22-8.3c-6,0-24.6-0.7-24.6,8.8
			c0,4.7,5.7,2.9,7.3,7.9c1.7,5.5,1.7,22.1,1.7,28.6c0,5.2,0.3,15.2-0.9,21.2c-2,9.8-9.9,6.4-9.9,14c0,11.6,34.6,14.4,36.5,14.4
			c4.5,0,5.6-2.9,5.6-6.9c0-3.1-1.7-17.7-1.7-36.8V16.4z"/>
		<path class="st0" d="M-99,21.3c0-5.3,0.4-13.6,7.6-13.6c9.6,0,8.3,12.5,8.3,18.9c0,4.4,0.1,10.1-0.5,14.4c-1.1,6.7-7.6,4.4-7.6,10
			c0,7.9,26.8,9.2,31.8,9.2c4.8,0,6.8-2.8,6.8-7.5c0-4.3-0.3-8.4-0.3-12.6V13.3c0-8,7.3-4.3,7.3-10.6c0-9.1-23.6-11.6-30.9-11.6
			c-10.3,0-3.5,8-8.8,8c-1.5,0-3.6-2-6.8-4c-3.2-2-7.5-4-13.3-4c-25.3,0-23.2,20-23.2,39.9c0,20.4-9.2,11.5-9.2,20.2
			c0,8.5,33.6,8.9,34.6,8.9c3.7,0,4.1-1.7,4.1-5.1L-99,21.3L-99,21.3z"/>
		<path class="st0" d="M-32.7,29.7c0,16.9-6.7,10.3-6.7,16.9c0,9.9,33,13.6,33.3,13.6c3.3,0,3.6-2.9,3.6-5.7c0-1.6-0.5-6.1,2.3-6.1
			c1.3,0,3.5,2.9,7.2,6c3.7,2.9,9.1,5.9,16.9,5.9c15.8,0,16-11.8,18.8-11.8c1.1,0,3.5,2.9,7.3,6c4,2.9,9.3,5.9,16.1,5.9
			c12.7,0,20.5-6.9,20.5-20V12.1c0-7.7,4.9-8.4,4.9-12.3c0-8.4-15.2-8.8-20.4-8.8C66.7-8.9,51.3-8,51.3-1c0,4.9,4.7,4.8,4.7,12.5v12
			c0,5.6,0.7,16.8-6.9,16.8c-7.5,0-6.8-9-6.8-14V18C42.2,1.6,47,4.4,47-0.5c0-8.3-16-8.4-20.8-8.4c-20.1,0-21.2,3.7-21,7.4
			C5.3,5.6,12,0,11.6,15.9v7.6c0,4.8,0.7,16.8-6.9,16.8c-7.5,0-6.8-9-6.8-14V15.5C-2.1,3.2,1.5,4,1.5-0.8c0-3.5-3.1-8.1-21.3-8.1
			C-25-8.9-40.7-9-40.7-2c0,6,8,2.8,8,19.4L-32.7,29.7L-32.7,29.7z"/>
		<path class="st0" d="M132.7,54.5c0-0.7-0.1-2.1,0.9-2.1c0.7,0,2.8,2.1,6.3,4.1c3.5,2.1,8.1,4.1,14,4.1c14.1,0,26.1-11.8,26.1-29.4
			c0-22.8-17-40.5-39.9-40.5c-16.8,0-24.6,8.6-26.8,8.6c-2.1,0-4.3-2-8.7-2c-1.9,0-4,0.5-4,2.7s2.7,6.4,2.7,23.7v35.4
			c0,7.7-10,4.3-10,11.8c0,8.9,25.8,14.9,36.9,14.9c3.6,0,3.5-2.8,3.3-5.7L132.7,54.5z M139.5,40.1c-5.9,0-6.5-4.8-6.5-9.3
			c0-25.8,1.5-28,6.8-28c8.8,0,10.3,10,10.3,16.8C150,25.8,148.3,40.1,139.5,40.1z"/>
		<path class="st0" d="M222.1,21.3c0-5.3,0.4-13.6,7.6-13.6c9.6,0,8.3,12.5,8.3,18.9c0,4.4,0.1,10.1-0.5,14.4
			c-1.1,6.7-7.6,4.4-7.6,10c0,7.9,26.8,9.2,31.8,9.2c4.8,0,6.8-2.8,6.8-7.5c0-4.3-0.3-8.4-0.3-12.6V13.3c0-8,7.3-4.3,7.3-10.6
			c0-9.1-23.6-11.6-30.9-11.6c-10.3,0-3.5,8-8.8,8c-1.5,0-3.6-2-6.8-4c-3.2-2-7.5-4-13.3-4c-25.3,0-23.2,20-23.2,39.9
			c0,20.4-9.2,11.5-9.2,20.2c0,8.5,33.6,8.9,34.6,8.9c3.7,0,4.1-1.7,4.1-5.1L222.1,21.3L222.1,21.3z"/>
		<path class="st0" d="M315.6,59.8c2.4-0.5,4.5-0.9,5.5-0.9c1.3,0,2.4,0.4,3.6,0.9c1.2,0.4,2.4,0.8,3.6,0.8
			c6.1,0,12.3-12.3,12.3-17.7c0-3.6-3.1-6.3-6.5-6.3c-7.6,0-11.9,10.5-17.7,10.5c-2.4,0-4.8-2-4.8-4.5c0-8.5,29.3-10.1,29.3-30.8
			c0-12.5-12.1-21.2-26-21.2c-2.7,0-6.5,0.4-9.9,0.9c-3.3,0.4-6.3,0.8-7.1,0.8c-0.9,0-1.7-0.1-2.7-0.3c-0.8-0.1-1.6-0.3-2.5-0.3
			c-2.7,0-4,0.4-5.9,2.5c-3.3,3.7-6.7,11.3-6.7,16.4c0,3.5,1.2,6.3,5.1,6.3c5.9,0,11.2-13.2,18.6-13.2c2.7,0,5.2,1.3,5.2,4.3
			c0,7.9-26.1,8.8-26.1,30.8c0,13.3,10.9,21.7,24.6,21.7C310.3,60.6,313.1,60.2,315.6,59.8z"/>
	</g>
</symbol>
<circle class="st1" cx="373.2" cy="378.8" r="341.8"/>
<g>
	<defs>
		<rect id="SVGID_1_" x="143" y="116.7" width="464.3" height="409.6"/>
	</defs>
	<clipPath id="SVGID_2_">
		<use xlink:href="#SVGID_1_"  style="overflow:visible;"/>
	</clipPath>
	<g transform="matrix(1 0 0 1 3.051758e-05 0)" style="clip-path:url(#SVGID_2_);">
		
			<use xlink:href="#Nouveau_symbole"  width="648.9" height="572.4" id="XMLID_20_" x="-324.4" y="-286.2" transform="matrix(0.7156 0 0 -0.7156 375.197 321.4991)" style="overflow:visible;"/>
	</g>
</g>
<g>
	<defs>
		<rect id="SVGID_3_" x="138" y="544" width="470.4" height="118.6"/>
	</defs>
	<clipPath id="SVGID_4_">
		<use xlink:href="#SVGID_3_"  style="overflow:visible;"/>
	</clipPath>
	<g style="clip-path:url(#SVGID_4_);">
		
			<use xlink:href="#Nouveau_symbole_5"  width="681.6" height="171.8" id="XMLID_18_" x="-340.8" y="-85.9" transform="matrix(0.6902 0 0 -0.6902 373.2194 603.281)" style="overflow:visible;"/>
	</g>
</g>
</svg>
